<svg width="32" height="32" viewBox="0 0 32 32" fill="none" xmlns="http://www.w3.org/2000/svg">
<g clip-path="url(#clip0_435_1682)">
<path d="M16.9412 19.7648H18.8235V21.6471H16.9412M13.1765 19.7648H15.0588V21.6471H13.1765M15.0588 21.6471H16.9412V23.5295H15.0588M18.8235 21.6471H20.7059V23.5295H18.8235M11.2941 21.6471H13.1765V23.5295H11.2941M13.1765 23.5295H15.0588V25.4118H13.1765M15.0588 23.5295H16.9412V25.4118H15.0588M16.9412 23.5295H18.8235V25.4118H16.9412M18.8235 23.5295H20.7059V25.4118H18.8235M13.1765 17.8824H15.0588V19.7648H13.1765M15.0588 17.8824H16.9412V19.7648H15.0588M16.9412 17.8824H18.8235V19.7648H16.9412M18.8235 17.8824H20.7059V19.7648H18.8235M11.2941 17.8824H13.1765V19.7648H11.2941M18.8235 19.7648H20.7059V21.6471H18.8235M20.7059 19.7648H22.5882V21.6471H20.7059M22.5882 19.7648H24.4706V21.6471H22.5882M24.4706 19.7648H26.3529V21.6471H24.4706M26.3529 19.7648H28.2353V21.6471H26.3529M28.2353 17.8824H30.1176V19.7648H28.2353M28.2353 19.7648H30.1176V21.6471H28.2353M11.2941 19.7648H13.1765V21.6471H11.2941M9.41176 19.7648H11.2941V21.6471H9.41176M7.52941 19.7648H9.41176V21.6471H7.52941M5.64706 19.7648H7.52941V21.6471H5.64706M3.76471 19.7648H5.64706V21.6471H3.76471M1.88235 17.8824H3.76471V19.7648H1.88235M1.88235 19.7648H3.76471V21.6471H1.88235M26.3529 17.8824H28.2353V19.7648H26.3529M3.76471 17.8824H5.64706V19.7648H3.76471M0 17.8824H1.88235V19.7648H0M0 19.7648H1.88235V21.6471H0M0 21.6471H1.88235V23.5295H0M1.88235 21.6471H3.76471V23.5295H1.88235M3.76471 21.6471H5.64706V23.5295H3.76471M5.64706 21.6471H7.52941V23.5295H5.64706M7.52941 21.6471H9.41176V23.5295H7.52941M9.41176 21.6471H11.2941V23.5295H9.41176M20.7059 21.6471H22.5882V23.5295H20.7059M22.5882 21.6471H24.4706V23.5295H22.5882M24.4706 21.6471H26.3529V23.5295H24.4706M26.3529 21.6471H28.2353V23.5295H26.3529M28.2353 21.6471H30.1176V23.5295H28.2353M30.1176 21.6471H32V23.5295H30.1176M30.1176 19.7648H32V21.6471H30.1176M30.1176 17.8824H32V19.7648H30.1176M28.2353 23.5295H30.1176V25.4118H28.2353M26.3529 23.5295H28.2353V25.4118H26.3529M24.4706 23.5295H26.3529V25.4118H24.4706M22.5882 23.5295H24.4706V25.4118H22.5882M20.7059 23.5295H22.5882V25.4118H20.7059M11.2941 23.5295H13.1765V25.4118H11.2941M9.41176 23.5295H11.2941V25.4118H9.41176M7.52941 23.5295H9.41176V25.4118H7.52941M5.64706 23.5295H7.52941V25.4118H5.64706M3.76471 23.5295H5.64706V25.4118H3.76471M1.88235 23.5295H3.76471V25.4118H1.88235M5.64706 25.4118H7.52941V27.2942H5.64706M7.52941 25.4118H9.41176V27.2942H7.52941M9.41176 25.4118H11.2941V27.2942H9.41176M11.2941 25.4118H13.1765V27.2942H11.2941M13.1765 25.4118H15.0588V27.2942H13.1765M15.0588 25.4118H16.9412V27.2942H15.0588M16.9412 25.4118H18.8235V27.2942H16.9412M18.8235 25.4118H20.7059V27.2942H18.8235M20.7059 25.4118H22.5882V27.2942H20.7059M22.5882 25.4118H24.4706V27.2942H22.5882M24.4706 25.4118H26.3529V27.2942H24.4706M28.2353 16.0001H30.1176V17.8824H28.2353M26.3529 16.0001H28.2353V17.8824H26.3529M24.4706 16.0001H26.3529V17.8824H24.4706M22.5882 16.0001H24.4706V17.8824H22.5882M20.7059 16.0001H22.5882V17.8824H20.7059M18.8235 16.0001H20.7059V17.8824H18.8235M16.9412 16.0001H18.8235V17.8824H16.9412M15.0588 16.0001H16.9412V17.8824H15.0588M13.1765 16.0001H15.0588V17.8824H13.1765M11.2941 16.0001H13.1765V17.8824H11.2941M9.41176 16.0001H11.2941V17.8824H9.41176M7.52941 16.0001H9.41176V17.8824H7.52941M5.64706 16.0001H7.52941V17.8824H5.64706M3.76471 16.0001H5.64706V17.8824H3.76471M1.88235 16.0001H3.76471V17.8824H1.88235M1.88235 14.1177H3.76471V16.0001H1.88235M3.76471 14.1177H5.64706V16.0001H3.76471M5.64706 14.1177H7.52941V16.0001H5.64706M7.52941 14.1177H9.41176V16.0001H7.52941M9.41176 14.1177H11.2941V16.0001H9.41176M11.2941 14.1177H13.1765V16.0001H11.2941M13.1765 14.1177H15.0588V16.0001H13.1765M15.0588 14.1177H16.9412V16.0001H15.0588M16.9412 14.1177H18.8235V16.0001H16.9412M18.8235 14.1177H20.7059V16.0001H18.8235M20.7059 14.1177H22.5882V16.0001H20.7059M22.5882 14.1177H24.4706V16.0001H22.5882M24.4706 14.1177H26.3529V16.0001H24.4706M26.3529 14.1177H28.2353V16.0001H26.3529M28.2353 14.1177H30.1176V16.0001H28.2353M26.3529 12.2353H28.2353V14.1177H26.3529M24.4706 12.2353H26.3529V14.1177H24.4706M22.5882 12.2353H24.4706V14.1177H22.5882M20.7059 12.2353H22.5882V14.1177H20.7059M18.8235 12.2353H20.7059V14.1177H18.8235M11.2941 12.2353H13.1765V14.1177H11.2941M9.41176 12.2353H11.2941V14.1177H9.41176M7.52941 12.2353H9.41176V14.1177H7.52941M5.64706 12.2353H7.52941V14.1177H5.64706M3.76471 12.2353H5.64706V14.1177H3.76471M3.76471 10.353H5.64706V12.2353H3.76471M5.64706 10.353H7.52941V12.2353H5.64706M9.41176 10.353H11.2941V12.2353H9.41176M11.2941 10.353H13.1765V12.2353H11.2941M18.8235 10.353H20.7059V12.2353H18.8235M20.7059 10.353H22.5882V12.2353H20.7059M24.4706 10.353H26.3529V12.2353H24.4706M26.3529 10.353H28.2353V12.2353H26.3529M24.4706 6.58829H26.3529V8.47064H24.4706M24.4706 8.47064H26.3529V10.353H24.4706M5.64706 6.58829H7.52941V8.47064H5.64706M5.64706 8.47064H7.52941V10.353H5.64706M7.52941 6.58829H9.41176V8.47064H7.52941M9.41176 6.58829H11.2941V8.47064H9.41176M9.41176 8.47064H11.2941V10.353H9.41176M22.5882 6.58829H24.4706V8.47064H22.5882M20.7059 6.58829H22.5882V8.47064H20.7059M20.7059 8.47064H22.5882V10.353H20.7059M7.52941 4.70593H9.41176V6.58829H7.52941M22.5882 4.70593H24.4706V6.58829H22.5882" fill="white"/>
</g>
<defs>
<clipPath id="clip0_435_1682">
<rect width="32" height="22.5882" fill="white" transform="translate(0 4.70593)"/>
</clipPath>
</defs>
</svg>
